<svg width="52" height="39" viewBox="0 0 52 39" fill="none" xmlns="http://www.w3.org/2000/svg">
<path d="M37.8125 10.3411C37.8125 10.7886 37.6347 11.2178 37.3182 11.5343C37.0018 11.8508 36.5726 12.0286 36.125 12.0286C35.6774 12.0286 35.2482 11.8508 34.9318 11.5343C34.6153 11.2178 34.4375 10.7886 34.4375 10.3411C34.4375 9.89351 34.6153 9.46429 34.9318 9.14782C35.2482 8.83135 35.6774 8.65356 36.125 8.65356C36.5726 8.65356 37.0018 8.83135 37.3182 9.14782C37.6347 9.46429 37.8125 9.89351 37.8125 10.3411ZM32.75 15.4036C33.1976 15.4036 33.6268 15.2258 33.9432 14.9093C34.2597 14.5928 34.4375 14.1636 34.4375 13.7161C34.4375 13.2685 34.2597 12.8393 33.9432 12.5228C33.6268 12.2064 33.1976 12.0286 32.75 12.0286C32.3024 12.0286 31.8732 12.2064 31.5568 12.5228C31.2403 12.8393 31.0625 13.2685 31.0625 13.7161C31.0625 14.1636 31.2403 14.5928 31.5568 14.9093C31.8732 15.2258 32.3024 15.4036 32.75 15.4036ZM41.1875 13.7161C41.1875 14.1636 41.0097 14.5928 40.6932 14.9093C40.3768 15.2258 39.9476 15.4036 39.5 15.4036C39.0524 15.4036 38.6232 15.2258 38.3068 14.9093C37.9903 14.5928 37.8125 14.1636 37.8125 13.7161C37.8125 13.2685 37.9903 12.8393 38.3068 12.5228C38.6232 12.2064 39.0524 12.0286 39.5 12.0286C39.9476 12.0286 40.3768 12.2064 40.6932 12.5228C41.0097 12.8393 41.1875 13.2685 41.1875 13.7161ZM36.125 18.7786C36.5726 18.7786 37.0018 18.6008 37.3182 18.2843C37.6347 17.9678 37.8125 17.5386 37.8125 17.0911C37.8125 16.6435 37.6347 16.2143 37.3182 15.8978C37.0018 15.5814 36.5726 15.4036 36.125 15.4036C35.6774 15.4036 35.2482 15.5814 34.9318 15.8978C34.6153 16.2143 34.4375 16.6435 34.4375 17.0911C34.4375 17.5386 34.6153 17.9678 34.9318 18.2843C35.2482 18.6008 35.6774 18.7786 36.125 18.7786ZM14.1875 8.65356H17.5625V12.0286H20.9375V15.4036H17.5625V18.7786H14.1875V15.4036H10.8125V12.0286H14.1875V8.65356Z" fill="white"/>
<path d="M9.02028 3.87436C8.96264 3.66006 8.94782 3.4365 8.97669 3.21647C9.00556 2.99644 9.07754 2.78427 9.18852 2.5921C9.2995 2.39993 9.44729 2.23153 9.62343 2.09655C9.79957 1.96158 10.0006 1.86266 10.215 1.80548L16.7355 0.0572328C16.9597 -0.00250395 17.1938 -0.0153797 17.4231 0.0194088C17.6525 0.0541974 17.8722 0.135903 18.0686 0.259424C18.2649 0.382944 18.4337 0.545626 18.5644 0.737309C18.6951 0.928992 18.7848 1.14556 18.828 1.37348C21.0387 1.10686 23.3843 0.978608 25.7232 0.978608C28.1532 0.978608 30.5933 1.11698 32.8782 1.40386C32.9176 1.17248 33.0049 0.951874 33.1344 0.756142C33.264 0.56041 33.4329 0.393855 33.6305 0.267122C33.8281 0.140388 34.0499 0.0562636 34.2818 0.0201234C34.5137 -0.0160169 34.7507 -0.00337806 34.9774 0.0572328L41.4979 1.80548C41.7467 1.87209 41.977 1.99476 42.171 2.1641C42.3651 2.33345 42.5178 2.54497 42.6175 2.78246C42.7172 3.01995 42.7612 3.27711 42.7462 3.53423C42.7311 3.79136 42.6574 4.04162 42.5307 4.26586C43.0032 4.56961 43.4284 4.90711 43.7895 5.26823C45.1665 6.64523 46.422 8.81198 47.4852 11.2487C48.5652 13.7226 49.5068 16.6184 50.202 19.5715C50.8973 22.5246 51.3495 25.579 51.4305 28.3667C51.5115 31.1207 51.2314 33.7735 50.3235 35.8255C49.9095 36.7467 49.215 37.5136 48.3392 38.0167C47.4634 38.5198 46.451 38.7333 45.4467 38.6267C43.3002 38.4006 41.6835 37.297 40.3403 36.0179C39.5134 35.2349 38.6663 34.2426 37.8462 33.2909C37.4209 32.7914 37.0024 32.3054 36.6042 31.8632C34.1472 29.1497 31.2143 26.7096 25.7232 26.7096C20.232 26.7096 17.2992 29.1497 14.8422 31.8632C14.4405 32.3054 14.0254 32.7914 13.6002 33.2909C12.78 34.2426 11.9329 35.2315 11.106 36.0179C9.76278 37.3004 8.14616 38.4006 5.99966 38.6267C4.99528 38.7333 3.98292 38.5198 3.1071 38.0167C2.23129 37.5136 1.5368 36.7467 1.12278 35.8255C0.211532 33.7735 -0.0652183 31.1174 0.0124067 28.3667C0.0934067 25.579 0.552407 22.528 1.24428 19.5715C1.93953 16.6184 2.88453 13.7226 3.96116 11.2487C5.02428 8.81198 6.27978 6.64523 7.65341 5.26823C8.09461 4.83548 8.5851 4.45601 9.11478 4.13761C9.07593 4.05151 9.04432 3.96233 9.02028 3.87098V3.87436ZM15.8918 5.26486C12.9319 5.88923 10.9339 6.75998 10.0429 7.65436C9.11141 8.58586 8.06178 10.297 7.05603 12.5987C5.98906 15.1016 5.14431 17.6935 4.53153 20.3444C3.88419 23.0069 3.50096 25.7268 3.38741 28.4646C3.31316 31.0127 3.59666 33.0816 4.20753 34.4586C4.33263 34.7268 4.53854 34.9491 4.79639 35.0944C5.05423 35.2397 5.35107 35.3006 5.64528 35.2686C6.74891 35.1539 7.70403 34.597 8.78066 33.5744C9.49616 32.8926 10.1307 32.1467 10.8563 31.2996C11.3052 30.7731 11.7878 30.2095 12.3413 29.5986C15.129 26.5172 18.8989 23.338 25.7232 23.338C32.5474 23.338 36.3173 26.5172 39.105 29.5986C39.6585 30.2095 40.1412 30.7731 40.59 31.2996C41.3123 32.1467 41.9502 32.8926 42.6657 33.5744C43.7389 34.597 44.694 35.1539 45.801 35.272C46.0956 35.3037 46.3927 35.2423 46.6506 35.0964C46.9085 34.9505 47.1142 34.7274 47.2388 34.4586C47.8463 33.0816 48.1332 31.0161 48.0589 28.4646C47.9453 25.7268 47.5621 23.0069 46.9148 20.3444C46.3019 17.6935 45.4572 15.1016 44.3903 12.5987C43.3845 10.297 42.3315 8.58248 41.4034 7.65436C40.5124 6.75998 38.5144 5.88923 35.5545 5.26486C32.6858 4.66073 29.2197 4.35361 25.7232 4.35361C22.2267 4.35361 18.7605 4.66073 15.8918 5.26486Z" fill="white"/>
</svg>